solid surf_m_a
   facet normal -0.000000e+00 1.000000e+00 0.000000e+00
      outer loop
         vertex 4.450923e-02 9.999990e-02 7.442324e-02
         vertex 4.450923e-02 9.999990e-02 3.192000e+00
         vertex 6.503809e-01 9.999990e-02 7.430574e-02
      endloop
   endfacet
   facet normal 0.000000e+00 1.000000e+00 0.000000e+00
      outer loop
         vertex 6.503809e-01 9.999990e-02 7.430574e-02
         vertex 4.450923e-02 9.999990e-02 3.192000e+00
         vertex 6.503104e-01 9.999990e-02 3.193880e+00
      endloop
   endfacet
   facet normal -0.000000e+00 1.000000e+00 -0.000000e+00
      outer loop
         vertex 6.503809e-01 9.999990e-02 7.430574e-02
         vertex 6.503104e-01 9.999990e-02 3.193880e+00
         vertex 1.300576e+00 9.999990e-02 7.417887e-02
      endloop
   endfacet
   facet normal 0.000000e+00 1.000000e+00 0.000000e+00
      outer loop
         vertex 1.300576e+00 9.999990e-02 7.417887e-02
         vertex 6.503104e-01 9.999990e-02 3.193880e+00
         vertex 1.300516e+00 9.999990e-02 3.195900e+00
      endloop
   endfacet
   facet normal -0.000000e+00 1.000000e+00 -0.000000e+00
      outer loop
         vertex 1.300576e+00 9.999990e-02 7.417887e-02
         vertex 1.300516e+00 9.999990e-02 3.195900e+00
         vertex 1.950771e+00 9.999990e-02 7.405126e-02
      endloop
   endfacet
   facet normal -0.000000e+00 1.000000e+00 0.000000e+00
      outer loop
         vertex 1.300516e+00 9.999990e-02 3.195900e+00
         vertex 1.950721e+00 9.999990e-02 3.197920e+00
         vertex 1.950771e+00 9.999990e-02 7.405126e-02
      endloop
   endfacet
   facet normal 0.000000e+00 1.000000e+00 -0.000000e+00
      outer loop
         vertex 1.950771e+00 9.999990e-02 7.405126e-02
         vertex 1.950721e+00 9.999990e-02 3.197920e+00
         vertex 2.107998e+00 9.999990e-02 3.198409e+00
      endloop
   endfacet
   facet normal -0.000000e+00 1.000000e+00 0.000000e+00
      outer loop
         vertex 1.950771e+00 9.999990e-02 7.405126e-02
         vertex 2.107998e+00 9.999990e-02 3.198409e+00
         vertex 2.600966e+00 9.999990e-02 7.392299e-02
      endloop
   endfacet
   facet normal 0.000000e+00 1.000000e+00 0.000000e+00
      outer loop
         vertex 2.600966e+00 9.999990e-02 7.392299e-02
         vertex 2.107998e+00 9.999990e-02 3.198409e+00
         vertex 2.600926e+00 9.999990e-02 3.199942e+00
      endloop
   endfacet
   facet normal -0.000000e+00 1.000000e+00 -0.000000e+00
      outer loop
         vertex 2.600966e+00 9.999990e-02 7.392299e-02
         vertex 2.600926e+00 9.999990e-02 3.199942e+00
         vertex 3.110948e+00 9.999990e-02 7.382202e-02
      endloop
   endfacet
   facet normal 0.000000e+00 1.000000e+00 -0.000000e+00
      outer loop
         vertex 3.110948e+00 9.999990e-02 7.382202e-02
         vertex 2.600926e+00 9.999990e-02 3.199942e+00
         vertex 3.251131e+00 9.999990e-02 3.201965e+00
      endloop
   endfacet
   facet normal 0.000000e+00 1.000000e+00 0.000000e+00
      outer loop
         vertex 5.170907e+00 9.999990e-02 3.207941e+00
         vertex 5.170907e+00 9.999990e-02 7.341231e-02
         vertex 4.551542e+00 9.999990e-02 3.206012e+00
      endloop
   endfacet
   facet normal 0.000000e+00 1.000000e+00 0.000000e+00
      outer loop
         vertex 4.551542e+00 9.999990e-02 3.206012e+00
         vertex 5.170907e+00 9.999990e-02 7.341231e-02
         vertex 4.551551e+00 9.999990e-02 7.353584e-02
      endloop
   endfacet
   facet normal 0.000000e+00 1.000000e+00 0.000000e+00
      outer loop
         vertex 4.551542e+00 9.999990e-02 3.206012e+00
         vertex 4.551551e+00 9.999990e-02 7.353584e-02
         vertex 3.901337e+00 9.999990e-02 3.203988e+00
      endloop
   endfacet
   facet normal 0.000000e+00 1.000000e+00 0.000000e+00
      outer loop
         vertex 3.901337e+00 9.999990e-02 3.203988e+00
         vertex 4.551551e+00 9.999990e-02 7.353584e-02
         vertex 3.901356e+00 9.999990e-02 7.366515e-02
      endloop
   endfacet
   facet normal 0.000000e+00 1.000000e+00 0.000000e+00
      outer loop
         vertex 3.901337e+00 9.999990e-02 3.203988e+00
         vertex 3.901356e+00 9.999990e-02 7.366515e-02
         vertex 3.251131e+00 9.999990e-02 3.201965e+00
      endloop
   endfacet
   facet normal 0.000000e+00 1.000000e+00 0.000000e+00
      outer loop
         vertex 3.251131e+00 9.999990e-02 3.201965e+00
         vertex 3.901356e+00 9.999990e-02 7.366515e-02
         vertex 3.251161e+00 9.999990e-02 7.379422e-02
      endloop
   endfacet
   facet normal 0.000000e+00 1.000000e+00 0.000000e+00
      outer loop
         vertex 3.251131e+00 9.999990e-02 3.201965e+00
         vertex 3.251161e+00 9.999990e-02 7.379422e-02
         vertex 3.110948e+00 9.999990e-02 7.382202e-02
      endloop
   endfacet
   facet normal 3.751132e-04 -8.526911e-03 9.999636e-01
      outer loop
         vertex 6.537378e-01 8.397775e-01 8.050295e-02
         vertex 4.454067e-02 8.425398e-01 8.075503e-02
         vertex 4.450923e-02 9.999990e-02 7.442324e-02
      endloop
   endfacet
   facet normal 9.248328e-04 -8.526956e-03 9.999632e-01
      outer loop
         vertex 6.639827e-01 3.097534e+00 9.940998e-02
         vertex 4.463623e-02 3.099530e+00 9.999981e-02
         vertex 4.460508e-02 2.363694e+00 9.372517e-02
      endloop
   endfacet
   facet normal 7.453427e-04 -8.375473e-03 9.999646e-01
      outer loop
         vertex 4.460508e-02 2.363694e+00 9.372517e-02
         vertex 6.606401e-01 2.360903e+00 9.324262e-02
         vertex 6.639827e-01 3.097534e+00 9.940998e-02
      endloop
   endfacet
   facet normal 7.450718e-04 -8.375472e-03 9.999646e-01
      outer loop
         vertex 6.639827e-01 3.097534e+00 9.940998e-02
         vertex 6.606401e-01 2.360903e+00 9.324262e-02
         vertex 1.310822e+00 2.357957e+00 9.273349e-02
      endloop
   endfacet
   facet normal 9.253130e-04 -8.217842e-03 9.999658e-01
      outer loop
         vertex 6.639827e-01 3.097534e+00 9.940998e-02
         vertex 1.310822e+00 2.357957e+00 9.273349e-02
         vertex 1.314168e+00 3.095440e+00 9.879112e-02
      endloop
   endfacet
   facet normal 7.453245e-04 -8.217027e-03 9.999660e-01
      outer loop
         vertex 1.314168e+00 3.095440e+00 9.879112e-02
         vertex 1.310822e+00 2.357957e+00 9.273349e-02
         vertex 1.961003e+00 2.355011e+00 9.222467e-02
      endloop
   endfacet
   facet normal 9.254240e-04 -8.059703e-03 9.999671e-01
      outer loop
         vertex 1.314168e+00 3.095440e+00 9.879112e-02
         vertex 1.961003e+00 2.355011e+00 9.222467e-02
         vertex 1.964353e+00 3.093345e+00 9.817252e-02
      endloop
   endfacet
   facet normal 7.455072e-04 -8.058888e-03 9.999672e-01
      outer loop
         vertex 1.964353e+00 3.093345e+00 9.817252e-02
         vertex 1.961003e+00 2.355011e+00 9.222467e-02
         vertex 2.611185e+00 2.352064e+00 9.171620e-02
      endloop
   endfacet
   facet normal 9.256586e-04 -7.901700e-03 9.999684e-01
      outer loop
         vertex 1.964353e+00 3.093345e+00 9.817252e-02
         vertex 2.611185e+00 2.352064e+00 9.171620e-02
         vertex 2.614539e+00 3.091250e+00 9.755410e-02
      endloop
   endfacet
   facet normal 7.456804e-04 -7.900884e-03 9.999685e-01
      outer loop
         vertex 2.614539e+00 3.091250e+00 9.755410e-02
         vertex 2.611185e+00 2.352064e+00 9.171620e-02
         vertex 3.261366e+00 2.349118e+00 9.120808e-02
      endloop
   endfacet
   facet normal 9.261886e-04 -7.743566e-03 9.999696e-01
      outer loop
         vertex 2.614539e+00 3.091250e+00 9.755410e-02
         vertex 3.261366e+00 2.349118e+00 9.120808e-02
         vertex 3.264724e+00 3.089155e+00 9.693566e-02
      endloop
   endfacet
   facet normal 7.458415e-04 -7.742749e-03 9.999697e-01
      outer loop
         vertex 3.264724e+00 3.089155e+00 9.693566e-02
         vertex 3.261366e+00 2.349118e+00 9.120808e-02
         vertex 3.911548e+00 2.346172e+00 9.070032e-02
      endloop
   endfacet
   facet normal 9.270006e-04 -7.585045e-03 9.999708e-01
      outer loop
         vertex 3.264724e+00 3.089155e+00 9.693566e-02
         vertex 3.911548e+00 2.346172e+00 9.070032e-02
         vertex 3.914909e+00 3.087060e+00 9.631703e-02
      endloop
   endfacet
   facet normal 7.459243e-04 -7.584224e-03 9.999710e-01
      outer loop
         vertex 3.914909e+00 3.087060e+00 9.631703e-02
         vertex 3.911548e+00 2.346172e+00 9.070032e-02
         vertex 4.561729e+00 2.343226e+00 9.019297e-02
      endloop
   endfacet
   facet normal 9.278934e-04 -7.425997e-03 9.999720e-01
      outer loop
         vertex 3.914909e+00 3.087060e+00 9.631703e-02
         vertex 4.561729e+00 2.343226e+00 9.019297e-02
         vertex 4.565094e+00 3.084965e+00 9.569815e-02
      endloop
   endfacet
   facet normal 7.458299e-04 -7.425172e-03 9.999722e-01
      outer loop
         vertex 4.565094e+00 3.084965e+00 9.569815e-02
         vertex 4.561729e+00 2.343226e+00 9.019297e-02
         vertex 5.170907e+00 2.340466e+00 8.971812e-02
      endloop
   endfacet
   facet normal 9.288245e-04 -7.276274e-03 9.999731e-01
      outer loop
         vertex 4.565094e+00 3.084965e+00 9.569815e-02
         vertex 5.170907e+00 2.340466e+00 8.971812e-02
         vertex 5.170907e+00 3.083013e+00 9.512124e-02
      endloop
   endfacet
   facet normal 1.994509e-04 -7.277829e-03 9.999735e-01
      outer loop
         vertex 4.551551e+00 9.999990e-02 7.353584e-02
         vertex 5.170907e+00 9.999990e-02 7.341231e-02
         vertex 5.170907e+00 8.192961e-01 7.864736e-02
      endloop
   endfacet
   facet normal 3.755860e-04 -7.587879e-03 9.999711e-01
      outer loop
         vertex 3.254464e+00 8.279855e-01 7.943214e-02
         vertex 3.901356e+00 9.999990e-02 7.366515e-02
         vertex 3.904646e+00 8.250375e-01 7.916557e-02
      endloop
   endfacet
   facet normal 1.988680e-04 -7.587078e-03 9.999712e-01
      outer loop
         vertex 3.904646e+00 8.250375e-01 7.916557e-02
         vertex 3.901356e+00 9.999990e-02 7.366515e-02
         vertex 4.551551e+00 9.999990e-02 7.353584e-02
      endloop
   endfacet
   facet normal 3.757268e-04 -7.429287e-03 9.999723e-01
      outer loop
         vertex 3.904646e+00 8.250375e-01 7.916557e-02
         vertex 4.551551e+00 9.999990e-02 7.353584e-02
         vertex 4.554828e+00 8.220894e-01 7.889937e-02
      endloop
   endfacet
   facet normal 3.753561e-04 -7.429285e-03 9.999723e-01
      outer loop
         vertex 4.554828e+00 8.220894e-01 7.889937e-02
         vertex 4.551551e+00 9.999990e-02 7.353584e-02
         vertex 5.170907e+00 8.192961e-01 7.864736e-02
      endloop
   endfacet
   facet normal 1.979746e-04 -7.745166e-03 9.999700e-01
      outer loop
         vertex 2.600966e+00 9.999990e-02 7.392299e-02
         vertex 3.110948e+00 9.999990e-02 7.382202e-02
         vertex 3.254464e+00 8.279855e-01 7.943214e-02
      endloop
   endfacet
   facet normal 1.982637e-04 -7.745223e-03 9.999700e-01
      outer loop
         vertex 3.254464e+00 8.279855e-01 7.943214e-02
         vertex 3.110948e+00 9.999990e-02 7.382202e-02
         vertex 3.251161e+00 9.999990e-02 7.379422e-02
      endloop
   endfacet
   facet normal 1.985068e-04 -7.745224e-03 9.999700e-01
      outer loop
         vertex 3.254464e+00 8.279855e-01 7.943214e-02
         vertex 3.251161e+00 9.999990e-02 7.379422e-02
         vertex 3.901356e+00 9.999990e-02 7.366515e-02
      endloop
   endfacet
   facet normal 1.939246e-04 -8.377708e-03 9.999649e-01
      outer loop
         vertex 4.450923e-02 9.999990e-02 7.442324e-02
         vertex 6.503809e-01 9.999990e-02 7.430574e-02
         vertex 6.537378e-01 8.397775e-01 8.050295e-02
      endloop
   endfacet
   facet normal 1.951226e-04 -8.377713e-03 9.999649e-01
      outer loop
         vertex 6.537378e-01 8.397775e-01 8.050295e-02
         vertex 6.503809e-01 9.999990e-02 7.430574e-02
         vertex 1.300576e+00 9.999990e-02 7.417887e-02
      endloop
   endfacet
   facet normal 3.755656e-04 -8.219950e-03 9.999661e-01
      outer loop
         vertex 6.537378e-01 8.397775e-01 8.050295e-02
         vertex 1.300576e+00 9.999990e-02 7.417887e-02
         vertex 1.303919e+00 8.368297e-01 8.023452e-02
      endloop
   endfacet
   facet normal 1.962515e-04 -8.219137e-03 9.999662e-01
      outer loop
         vertex 1.303919e+00 8.368297e-01 8.023452e-02
         vertex 1.300576e+00 9.999990e-02 7.417887e-02
         vertex 1.950771e+00 9.999990e-02 7.405126e-02
      endloop
   endfacet
   facet normal 3.754953e-04 -8.061792e-03 9.999674e-01
      outer loop
         vertex 1.303919e+00 8.368297e-01 8.023452e-02
         vertex 1.950771e+00 9.999990e-02 7.405126e-02
         vertex 1.954101e+00 8.338816e-01 7.996661e-02
      endloop
   endfacet
   facet normal 1.972830e-04 -8.060984e-03 9.999675e-01
      outer loop
         vertex 1.954101e+00 8.338816e-01 7.996661e-02
         vertex 1.950771e+00 9.999990e-02 7.405126e-02
         vertex 2.600966e+00 9.999990e-02 7.392299e-02
      endloop
   endfacet
   facet normal 3.755013e-04 -7.903907e-03 9.999687e-01
      outer loop
         vertex 1.954101e+00 8.338816e-01 7.996661e-02
         vertex 2.600966e+00 9.999990e-02 7.392299e-02
         vertex 2.604283e+00 8.309336e-01 7.969915e-02
      endloop
   endfacet
   facet normal 3.748166e-04 -7.903903e-03 9.999687e-01
      outer loop
         vertex 2.604283e+00 8.309336e-01 7.969915e-02
         vertex 2.600966e+00 9.999990e-02 7.392299e-02
         vertex 3.254464e+00 8.279855e-01 7.943214e-02
      endloop
   endfacet
   facet normal 5.599323e-04 -8.526219e-03 9.999635e-01
      outer loop
         vertex 4.457287e-02 1.603117e+00 8.724009e-02
         vertex 4.454067e-02 8.425398e-01 8.075503e-02
         vertex 6.571889e-01 1.600340e+00 8.687338e-02
      endloop
   endfacet
   facet normal 3.757918e-04 -8.377360e-03 9.999648e-01
      outer loop
         vertex 6.571889e-01 1.600340e+00 8.687338e-02
         vertex 4.454067e-02 8.425398e-01 8.075503e-02
         vertex 6.537378e-01 8.397775e-01 8.050295e-02
      endloop
   endfacet
   facet normal 5.599770e-04 -8.378195e-03 9.999647e-01
      outer loop
         vertex 6.571889e-01 1.600340e+00 8.687338e-02
         vertex 6.537378e-01 8.397775e-01 8.050295e-02
         vertex 1.307371e+00 1.597393e+00 8.648459e-02
      endloop
   endfacet
   facet normal 3.755694e-04 -8.219109e-03 9.999662e-01
      outer loop
         vertex 1.307371e+00 1.597393e+00 8.648459e-02
         vertex 6.537378e-01 8.397775e-01 8.050295e-02
         vertex 1.303919e+00 8.368297e-01 8.023452e-02
      endloop
   endfacet
   facet normal 5.600493e-04 -8.219945e-03 9.999661e-01
      outer loop
         vertex 1.307371e+00 1.597393e+00 8.648459e-02
         vertex 1.303919e+00 8.368297e-01 8.023452e-02
         vertex 1.957552e+00 1.594446e+00 8.609622e-02
      endloop
   endfacet
   facet normal 3.755001e-04 -8.060736e-03 9.999674e-01
      outer loop
         vertex 1.957552e+00 1.594446e+00 8.609622e-02
         vertex 1.303919e+00 8.368297e-01 8.023452e-02
         vertex 1.954101e+00 8.338816e-01 7.996661e-02
      endloop
   endfacet
   facet normal 5.601174e-04 -8.061573e-03 9.999673e-01
      outer loop
         vertex 1.957552e+00 1.594446e+00 8.609622e-02
         vertex 1.954101e+00 8.338816e-01 7.996661e-02
         vertex 2.607734e+00 1.591499e+00 8.570827e-02
      endloop
   endfacet
   facet normal 3.755086e-04 -7.902313e-03 9.999687e-01
      outer loop
         vertex 2.607734e+00 1.591499e+00 8.570827e-02
         vertex 1.954101e+00 8.338816e-01 7.996661e-02
         vertex 2.604283e+00 8.309336e-01 7.969915e-02
      endloop
   endfacet
   facet normal 5.601932e-04 -7.903150e-03 9.999686e-01
      outer loop
         vertex 2.607734e+00 1.591499e+00 8.570827e-02
         vertex 2.604283e+00 8.309336e-01 7.969915e-02
         vertex 3.257915e+00 1.588552e+00 8.532074e-02
      endloop
   endfacet
   facet normal 3.755428e-04 -7.743853e-03 9.999699e-01
      outer loop
         vertex 3.257915e+00 1.588552e+00 8.532074e-02
         vertex 2.604283e+00 8.309336e-01 7.969915e-02
         vertex 3.254464e+00 8.279855e-01 7.943214e-02
      endloop
   endfacet
   facet normal 5.602820e-04 -7.744691e-03 9.999699e-01
      outer loop
         vertex 3.257915e+00 1.588552e+00 8.532074e-02
         vertex 3.254464e+00 8.279855e-01 7.943214e-02
         vertex 3.908097e+00 1.585605e+00 8.493362e-02
      endloop
   endfacet
   facet normal 3.755974e-04 -7.585365e-03 9.999712e-01
      outer loop
         vertex 3.908097e+00 1.585605e+00 8.493362e-02
         vertex 3.254464e+00 8.279855e-01 7.943214e-02
         vertex 3.904646e+00 8.250375e-01 7.916557e-02
      endloop
   endfacet
   facet normal 5.603735e-04 -7.586202e-03 9.999711e-01
      outer loop
         vertex 3.908097e+00 1.585605e+00 8.493362e-02
         vertex 3.904646e+00 8.250375e-01 7.916557e-02
         vertex 4.558279e+00 1.582658e+00 8.454691e-02
      endloop
   endfacet
   facet normal 3.757375e-04 -7.426918e-03 9.999723e-01
      outer loop
         vertex 4.558279e+00 1.582658e+00 8.454691e-02
         vertex 3.904646e+00 8.250375e-01 7.916557e-02
         vertex 4.554828e+00 8.220894e-01 7.889937e-02
      endloop
   endfacet
   facet normal 5.582801e-04 -7.427745e-03 9.999723e-01
      outer loop
         vertex 4.558279e+00 1.582658e+00 8.454691e-02
         vertex 4.554828e+00 8.220894e-01 7.889937e-02
         vertex 5.170907e+00 1.570862e+00 8.411726e-02
      endloop
   endfacet
   facet normal 3.760434e-04 -7.277812e-03 9.999734e-01
      outer loop
         vertex 5.170907e+00 1.570862e+00 8.411726e-02
         vertex 4.554828e+00 8.220894e-01 7.889937e-02
         vertex 5.170907e+00 8.192961e-01 7.864736e-02
      endloop
   endfacet
   facet normal 5.611757e-04 -7.277394e-03 9.999734e-01
      outer loop
         vertex 5.170907e+00 1.570862e+00 8.411726e-02
         vertex 5.170907e+00 2.340466e+00 8.971812e-02
         vertex 4.558279e+00 1.582658e+00 8.454691e-02
      endloop
   endfacet
   facet normal 7.458231e-04 -7.426659e-03 9.999721e-01
      outer loop
         vertex 4.558279e+00 1.582658e+00 8.454691e-02
         vertex 5.170907e+00 2.340466e+00 8.971812e-02
         vertex 4.561729e+00 2.343226e+00 9.019297e-02
      endloop
   endfacet
   facet normal 5.611012e-04 -7.425822e-03 9.999723e-01
      outer loop
         vertex 4.558279e+00 1.582658e+00 8.454691e-02
         vertex 4.561729e+00 2.343226e+00 9.019297e-02
         vertex 3.908097e+00 1.585605e+00 8.493362e-02
      endloop
   endfacet
   facet normal 7.459196e-04 -7.585263e-03 9.999710e-01
      outer loop
         vertex 3.908097e+00 1.585605e+00 8.493362e-02
         vertex 4.561729e+00 2.343226e+00 9.019297e-02
         vertex 3.911548e+00 2.346172e+00 9.070032e-02
      endloop
   endfacet
   facet normal 5.610091e-04 -7.584425e-03 9.999711e-01
      outer loop
         vertex 3.908097e+00 1.585605e+00 8.493362e-02
         vertex 3.911548e+00 2.346172e+00 9.070032e-02
         vertex 3.257915e+00 1.588552e+00 8.532074e-02
      endloop
   endfacet
   facet normal 7.458364e-04 -7.743874e-03 9.999697e-01
      outer loop
         vertex 3.257915e+00 1.588552e+00 8.532074e-02
         vertex 3.911548e+00 2.346172e+00 9.070032e-02
         vertex 3.261366e+00 2.349118e+00 9.120808e-02
      endloop
   endfacet
   facet normal 5.609197e-04 -7.743036e-03 9.999699e-01
      outer loop
         vertex 3.257915e+00 1.588552e+00 8.532074e-02
         vertex 3.261366e+00 2.349118e+00 9.120808e-02
         vertex 2.607734e+00 1.591499e+00 8.570827e-02
      endloop
   endfacet
   facet normal 7.456735e-04 -7.902422e-03 9.999685e-01
      outer loop
         vertex 2.607734e+00 1.591499e+00 8.570827e-02
         vertex 3.261366e+00 2.349118e+00 9.120808e-02
         vertex 2.611185e+00 2.352064e+00 9.171620e-02
      endloop
   endfacet
   facet normal 5.608434e-04 -7.901584e-03 9.999686e-01
      outer loop
         vertex 2.607734e+00 1.591499e+00 8.570827e-02
         vertex 2.611185e+00 2.352064e+00 9.171620e-02
         vertex 1.957552e+00 1.594446e+00 8.609622e-02
      endloop
   endfacet
   facet normal 7.454982e-04 -8.060884e-03 9.999672e-01
      outer loop
         vertex 1.957552e+00 1.594446e+00 8.609622e-02
         vertex 2.611185e+00 2.352064e+00 9.171620e-02
         vertex 1.961003e+00 2.355011e+00 9.222467e-02
      endloop
   endfacet
   facet normal 5.607748e-04 -8.060047e-03 9.999674e-01
      outer loop
         vertex 1.957552e+00 1.594446e+00 8.609622e-02
         vertex 1.961003e+00 2.355011e+00 9.222467e-02
         vertex 1.307371e+00 1.597393e+00 8.648459e-02
      endloop
   endfacet
   facet normal 7.453144e-04 -8.219247e-03 9.999659e-01
      outer loop
         vertex 1.307371e+00 1.597393e+00 8.648459e-02
         vertex 1.961003e+00 2.355011e+00 9.222467e-02
         vertex 1.310822e+00 2.357957e+00 9.273349e-02
      endloop
   endfacet
   facet normal 5.607021e-04 -8.218411e-03 9.999661e-01
      outer loop
         vertex 1.307371e+00 1.597393e+00 8.648459e-02
         vertex 1.310822e+00 2.357957e+00 9.273349e-02
         vertex 6.571889e-01 1.600340e+00 8.687338e-02
      endloop
   endfacet
   facet normal 7.450628e-04 -8.377457e-03 9.999646e-01
      outer loop
         vertex 6.571889e-01 1.600340e+00 8.687338e-02
         vertex 1.310822e+00 2.357957e+00 9.273349e-02
         vertex 6.606401e-01 2.360903e+00 9.324262e-02
      endloop
   endfacet
   facet normal 5.606111e-04 -8.376621e-03 9.999648e-01
      outer loop
         vertex 6.571889e-01 1.600340e+00 8.687338e-02
         vertex 6.606401e-01 2.360903e+00 9.324262e-02
         vertex 4.457287e-02 1.603117e+00 8.724009e-02
      endloop
   endfacet
   facet normal 7.446586e-04 -8.526237e-03 9.999634e-01
      outer loop
         vertex 4.457287e-02 1.603117e+00 8.724009e-02
         vertex 6.606401e-01 2.360903e+00 9.324262e-02
         vertex 4.460508e-02 2.363694e+00 9.372517e-02
      endloop
   endfacet
   facet normal 3.222009e-03 9.999948e-01 -1.676480e-08
      outer loop
         vertex 4.463623e-02 3.099530e+00 9.999981e-02
         vertex 6.639827e-01 3.097534e+00 9.940998e-02
         vertex 4.463623e-02 3.099530e+00 2.235174e-08
      endloop
   endfacet
   facet normal 3.222013e-03 9.999948e-01 -4.166872e-08
      outer loop
         vertex 4.463623e-02 3.099530e+00 2.235174e-08
         vertex 6.639827e-01 3.097534e+00 9.940998e-02
         vertex 1.314168e+00 3.095440e+00 9.879112e-02
      endloop
   endfacet
   facet normal 3.222018e-03 9.999948e-01 1.131861e-07
      outer loop
         vertex 3.264724e+00 3.089155e+00 9.693566e-02
         vertex 5.170907e+00 3.083013e+00 2.235174e-08
         vertex 2.614539e+00 3.091250e+00 9.755410e-02
      endloop
   endfacet
   facet normal 3.222014e-03 9.999948e-01 -4.081761e-09
      outer loop
         vertex 2.614539e+00 3.091250e+00 9.755410e-02
         vertex 5.170907e+00 3.083013e+00 2.235174e-08
         vertex 4.463623e-02 3.099530e+00 2.235174e-08
      endloop
   endfacet
   facet normal 3.222018e-03 9.999948e-01 -1.162223e-07
      outer loop
         vertex 2.614539e+00 3.091250e+00 9.755410e-02
         vertex 4.463623e-02 3.099530e+00 2.235174e-08
         vertex 1.964353e+00 3.093345e+00 9.817252e-02
      endloop
   endfacet
   facet normal 3.222017e-03 9.999948e-01 -8.872359e-08
      outer loop
         vertex 1.964353e+00 3.093345e+00 9.817252e-02
         vertex 4.463623e-02 3.099530e+00 2.235174e-08
         vertex 1.314168e+00 3.095440e+00 9.879112e-02
      endloop
   endfacet
   facet normal 3.222016e-03 9.999948e-01 7.945488e-08
      outer loop
         vertex 3.264724e+00 3.089155e+00 9.693566e-02
         vertex 3.914909e+00 3.087060e+00 9.631703e-02
         vertex 5.170907e+00 3.083013e+00 2.235174e-08
      endloop
   endfacet
   facet normal 3.222012e-03 9.999948e-01 2.602777e-08
      outer loop
         vertex 5.170907e+00 3.083013e+00 2.235174e-08
         vertex 3.914909e+00 3.087060e+00 9.631703e-02
         vertex 4.565094e+00 3.084965e+00 9.569815e-02
      endloop
   endfacet
   facet normal 3.222011e-03 9.999948e-01 1.958170e-08
      outer loop
         vertex 5.170907e+00 3.083013e+00 2.235174e-08
         vertex 4.565094e+00 3.084965e+00 9.569815e-02
         vertex 5.170907e+00 3.083013e+00 9.512124e-02
      endloop
   endfacet
   facet normal -1.000000e+00 4.234005e-05 1.759763e-09
      outer loop
         vertex 4.450923e-02 9.999990e-02 7.442324e-02
         vertex 4.454067e-02 8.425398e-01 8.075503e-02
         vertex 4.450923e-02 9.999990e-02 2.235174e-08
      endloop
   endfacet
   facet normal -1.000000e+00 4.233965e-05 5.444946e-09
      outer loop
         vertex 4.450923e-02 9.999990e-02 2.235174e-08
         vertex 4.454067e-02 8.425398e-01 8.075503e-02
         vertex 4.457287e-02 1.603117e+00 8.724009e-02
      endloop
   endfacet
   facet normal -1.000000e+00 4.233997e-05 -3.346116e-11
      outer loop
         vertex 4.450923e-02 9.999990e-02 2.235174e-08
         vertex 4.457287e-02 1.603117e+00 8.724009e-02
         vertex 4.463623e-02 3.099530e+00 2.235174e-08
      endloop
   endfacet
   facet normal -1.000000e+00 4.233973e-05 -4.120270e-09
      outer loop
         vertex 4.463623e-02 3.099530e+00 2.235174e-08
         vertex 4.457287e-02 1.603117e+00 8.724009e-02
         vertex 4.460508e-02 2.363694e+00 9.372517e-02
      endloop
   endfacet
   facet normal -1.000000e+00 4.234010e-05 -1.190765e-09
      outer loop
         vertex 4.463623e-02 3.099530e+00 2.235174e-08
         vertex 4.460508e-02 2.363694e+00 9.372517e-02
         vertex 4.463623e-02 3.099530e+00 9.999981e-02
      endloop
   endfacet
   facet normal 0.000000e+00 0.000000e+00 -1.000000e+00
      outer loop
         vertex 5.170907e+00 3.083013e+00 2.235174e-08
         vertex 5.270907e+00 3.083013e+00 2.235174e-08
         vertex 5.270907e+00 0.000000e+00 2.235174e-08
      endloop
   endfacet
   facet normal 0.000000e+00 -0.000000e+00 -1.000000e+00
      outer loop
         vertex 4.463623e-02 3.099530e+00 2.235174e-08
         vertex 5.170907e+00 3.083013e+00 2.235174e-08
         vertex 4.450923e-02 9.999990e-02 2.235174e-08
      endloop
   endfacet
   facet normal 0.000000e+00 0.000000e+00 -1.000000e+00
      outer loop
         vertex 4.450923e-02 9.999990e-02 2.235174e-08
         vertex 5.170907e+00 3.083013e+00 2.235174e-08
         vertex 5.270907e+00 0.000000e+00 2.235174e-08
      endloop
   endfacet
   facet normal 0.000000e+00 0.000000e+00 -1.000000e+00
      outer loop
         vertex 4.450923e-02 9.999990e-02 2.235174e-08
         vertex 5.270907e+00 0.000000e+00 2.235174e-08
         vertex 4.450923e-02 0.000000e+00 2.235174e-08
      endloop
   endfacet
   facet normal 1.000000e+00 0.000000e+00 0.000000e+00
      outer loop
         vertex 5.174409e+00 8.790708e-02 3.250000e+00
         vertex 5.174409e+00 0.000000e+00 3.250000e+00
         vertex 5.174409e+00 8.790708e-02 3.220000e+00
      endloop
   endfacet
   facet normal 1.000000e+00 0.000000e+00 0.000000e+00
      outer loop
         vertex 5.174409e+00 8.790708e-02 3.220000e+00
         vertex 5.174409e+00 0.000000e+00 3.250000e+00
         vertex 5.174409e+00 0.000000e+00 3.220000e+00
      endloop
   endfacet
   facet normal -1.000000e+00 -8.440119e-09 1.759763e-09
      outer loop
         vertex 4.450923e-02 9.999990e-02 7.442324e-02
         vertex 4.450923e-02 9.999990e-02 2.235174e-08
         vertex 4.450923e-02 0.000000e+00 2.235174e-08
      endloop
   endfacet
   facet normal -1.000000e+00 -7.300664e-09 2.287173e-10
      outer loop
         vertex 4.450923e-02 9.999990e-02 7.442324e-02
         vertex 4.450923e-02 0.000000e+00 2.235174e-08
         vertex 4.450923e-02 9.999990e-02 3.192000e+00
      endloop
   endfacet
   facet normal -1.000000e+00 -0.000000e+00 0.000000e+00
      outer loop
         vertex 4.450923e-02 9.999990e-02 3.192000e+00
         vertex 4.450923e-02 0.000000e+00 2.235174e-08
         vertex 4.450923e-02 0.000000e+00 3.250000e+00
      endloop
   endfacet
   facet normal -1.000000e+00 0.000000e+00 0.000000e+00
      outer loop
         vertex 4.450923e-02 9.999990e-02 3.192000e+00
         vertex 4.450923e-02 0.000000e+00 3.250000e+00
         vertex 4.450923e-02 9.999990e-02 3.250000e+00
      endloop
   endfacet
   facet normal -0.000000e+00 -1.000000e+00 -0.000000e+00
      outer loop
         vertex 5.174409e+00 0.000000e+00 3.250000e+00
         vertex 4.450923e-02 0.000000e+00 3.250000e+00
         vertex 5.174409e+00 0.000000e+00 3.220000e+00
      endloop
   endfacet
   facet normal -0.000000e+00 -1.000000e+00 0.000000e+00
      outer loop
         vertex 5.174409e+00 0.000000e+00 3.220000e+00
         vertex 4.450923e-02 0.000000e+00 3.250000e+00
         vertex 4.450923e-02 0.000000e+00 2.235174e-08
      endloop
   endfacet
   facet normal 0.000000e+00 -1.000000e+00 -0.000000e+00
      outer loop
         vertex 5.174409e+00 0.000000e+00 3.220000e+00
         vertex 4.450923e-02 0.000000e+00 2.235174e-08
         vertex 5.270907e+00 0.000000e+00 3.220000e+00
      endloop
   endfacet
   facet normal 0.000000e+00 -1.000000e+00 -0.000000e+00
      outer loop
         vertex 5.270907e+00 0.000000e+00 3.220000e+00
         vertex 4.450923e-02 0.000000e+00 2.235174e-08
         vertex 5.270907e+00 0.000000e+00 2.235174e-08
      endloop
   endfacet
   facet normal 0.000000e+00 0.000000e+00 1.000000e+00
      outer loop
         vertex 4.450923e-02 9.999990e-02 3.250000e+00
         vertex 4.450923e-02 0.000000e+00 3.250000e+00
         vertex 5.174409e+00 0.000000e+00 3.250000e+00
      endloop
   endfacet
   facet normal 0.000000e+00 0.000000e+00 1.000000e+00
      outer loop
         vertex 4.450923e-02 9.999990e-02 3.250000e+00
         vertex 5.174409e+00 0.000000e+00 3.250000e+00
         vertex 5.174409e+00 8.790708e-02 3.250000e+00
      endloop
   endfacet
   facet normal 4.134519e-03 -4.001522e-03 -9.999834e-01
      outer loop
         vertex 5.170907e+00 3.083013e+00 3.196000e+00
         vertex 5.170907e+00 2.340455e+00 3.198971e+00
         vertex 4.561763e+00 2.343220e+00 3.196442e+00
      endloop
   endfacet
   facet normal 4.472188e-03 -4.279556e-03 -9.999808e-01
      outer loop
         vertex 5.170907e+00 3.083013e+00 3.196000e+00
         vertex 4.561763e+00 2.343220e+00 3.196442e+00
         vertex 4.565143e+00 3.084965e+00 3.193282e+00
      endloop
   endfacet
   facet normal 4.134753e-03 -4.278025e-03 -9.999823e-01
      outer loop
         vertex 4.565143e+00 3.084965e+00 3.193282e+00
         vertex 4.561763e+00 2.343220e+00 3.196442e+00
         vertex 3.911574e+00 2.346171e+00 3.193740e+00
      endloop
   endfacet
   facet normal 4.471976e-03 -4.576345e-03 -9.999795e-01
      outer loop
         vertex 4.565143e+00 3.084965e+00 3.193282e+00
         vertex 3.911574e+00 2.346171e+00 3.193740e+00
         vertex 3.914951e+00 3.087060e+00 3.190365e+00
      endloop
   endfacet
   facet normal 4.134868e-03 -4.574815e-03 -9.999810e-01
      outer loop
         vertex 3.914951e+00 3.087060e+00 3.190365e+00
         vertex 3.911574e+00 2.346171e+00 3.193740e+00
         vertex 3.261385e+00 2.349122e+00 3.191038e+00
      endloop
   endfacet
   facet normal 4.471012e-03 -4.872523e-03 -9.999781e-01
      outer loop
         vertex 3.914951e+00 3.087060e+00 3.190365e+00
         vertex 3.261385e+00 2.349122e+00 3.191038e+00
         vertex 3.264759e+00 3.089155e+00 3.187448e+00
      endloop
   endfacet
   facet normal 4.134616e-03 -4.870997e-03 -9.999796e-01
      outer loop
         vertex 3.264759e+00 3.089155e+00 3.187448e+00
         vertex 3.261385e+00 2.349122e+00 3.191038e+00
         vertex 2.611196e+00 2.352073e+00 3.188336e+00
      endloop
   endfacet
   facet normal 4.469688e-03 -5.168098e-03 -9.999767e-01
      outer loop
         vertex 3.264759e+00 3.089155e+00 3.187448e+00
         vertex 2.611196e+00 2.352073e+00 3.188336e+00
         vertex 2.614566e+00 3.091250e+00 3.184531e+00
      endloop
   endfacet
   facet normal 4.134370e-03 -5.166576e-03 -9.999781e-01
      outer loop
         vertex 2.614566e+00 3.091250e+00 3.184531e+00
         vertex 2.611196e+00 2.352073e+00 3.188336e+00
         vertex 1.961006e+00 2.355024e+00 3.185632e+00
      endloop
   endfacet
   facet normal 4.469095e-03 -5.463712e-03 -9.999751e-01
      outer loop
         vertex 2.614566e+00 3.091250e+00 3.184531e+00
         vertex 1.961006e+00 2.355024e+00 3.185632e+00
         vertex 1.964374e+00 3.093345e+00 3.181613e+00
      endloop
   endfacet
   facet normal 4.133755e-03 -5.462190e-03 -9.999765e-01
      outer loop
         vertex 1.964374e+00 3.093345e+00 3.181613e+00
         vertex 1.961006e+00 2.355024e+00 3.185632e+00
         vertex 1.310817e+00 2.357975e+00 3.182928e+00
      endloop
   endfacet
   facet normal 4.468134e-03 -5.759363e-03 -9.999734e-01
      outer loop
         vertex 1.964374e+00 3.093345e+00 3.181613e+00
         vertex 1.310817e+00 2.357975e+00 3.182928e+00
         vertex 1.314182e+00 3.095439e+00 3.178696e+00
      endloop
   endfacet
   facet normal 4.133506e-03 -5.757844e-03 -9.999749e-01
      outer loop
         vertex 1.314182e+00 3.095439e+00 3.178696e+00
         vertex 1.310817e+00 2.357975e+00 3.182928e+00
         vertex 6.606279e-01 2.360926e+00 3.180224e+00
      endloop
   endfacet
   facet normal 4.466810e-03 -6.054404e-03 -9.999717e-01
      outer loop
         vertex 1.314182e+00 3.095439e+00 3.178696e+00
         vertex 6.606279e-01 2.360926e+00 3.180224e+00
         vertex 6.639894e-01 3.097534e+00 3.175779e+00
      endloop
   endfacet
   facet normal 4.132976e-03 -6.052889e-03 -9.999731e-01
      outer loop
         vertex 6.639894e-01 3.097534e+00 3.175779e+00
         vertex 6.606279e-01 2.360926e+00 3.180224e+00
         vertex 4.460508e-02 2.363722e+00 3.177661e+00
      endloop
   endfacet
   facet normal 4.466022e-03 -6.333993e-03 -9.999700e-01
      outer loop
         vertex 6.639894e-01 3.097534e+00 3.175779e+00
         vertex 4.460508e-02 2.363722e+00 3.177661e+00
         vertex 4.463623e-02 3.099530e+00 3.173000e+00
      endloop
   endfacet
   facet normal 3.103924e-03 -6.333945e-03 -9.999751e-01
      outer loop
         vertex 6.503104e-01 9.999990e-02 3.193880e+00
         vertex 4.450923e-02 9.999990e-02 3.192000e+00
         vertex 4.454067e-02 8.425488e-01 3.187297e+00
      endloop
   endfacet
   facet normal 3.440804e-03 -5.762241e-03 -9.999775e-01
      outer loop
         vertex 1.954068e+00 8.338754e-01 3.193920e+00
         vertex 1.300516e+00 9.999990e-02 3.195900e+00
         vertex 1.303877e+00 8.368287e-01 3.191666e+00
      endloop
   endfacet
   facet normal 3.106097e-03 -5.760720e-03 -9.999786e-01
      outer loop
         vertex 1.303877e+00 8.368287e-01 3.191666e+00
         vertex 1.300516e+00 9.999990e-02 3.195900e+00
         vertex 6.503104e-01 9.999990e-02 3.193880e+00
      endloop
   endfacet
   facet normal 3.441288e-03 -6.058026e-03 -9.999757e-01
      outer loop
         vertex 1.303877e+00 8.368287e-01 3.191666e+00
         vertex 6.503104e-01 9.999990e-02 3.193880e+00
         vertex 6.536863e-01 8.397820e-01 3.189410e+00
      endloop
   endfacet
   facet normal 3.442145e-03 -6.058030e-03 -9.999757e-01
      outer loop
         vertex 6.536863e-01 8.397820e-01 3.189410e+00
         vertex 6.503104e-01 9.999990e-02 3.193880e+00
         vertex 4.454067e-02 8.425488e-01 3.187297e+00
      endloop
   endfacet
   facet normal 3.109505e-03 -5.465404e-03 -9.999802e-01
      outer loop
         vertex 2.600926e+00 9.999990e-02 3.199942e+00
         vertex 2.107998e+00 9.999990e-02 3.198409e+00
         vertex 1.954068e+00 8.338754e-01 3.193920e+00
      endloop
   endfacet
   facet normal 3.109081e-03 -5.465493e-03 -9.999802e-01
      outer loop
         vertex 1.954068e+00 8.338754e-01 3.193920e+00
         vertex 2.107998e+00 9.999990e-02 3.198409e+00
         vertex 1.950721e+00 9.999990e-02 3.197920e+00
      endloop
   endfacet
   facet normal 3.107569e-03 -5.465486e-03 -9.999802e-01
      outer loop
         vertex 1.954068e+00 8.338754e-01 3.193920e+00
         vertex 1.950721e+00 9.999990e-02 3.197920e+00
         vertex 1.300516e+00 9.999990e-02 3.195900e+00
      endloop
   endfacet
   facet normal 3.442027e-03 -5.172314e-03 -9.999807e-01
      outer loop
         vertex 1.954068e+00 8.338754e-01 3.193920e+00
         vertex 2.604259e+00 8.309221e-01 3.196173e+00
         vertex 2.600926e+00 9.999990e-02 3.199942e+00
      endloop
   endfacet
   facet normal 3.440928e-03 -5.172309e-03 -9.999807e-01
      outer loop
         vertex 2.600926e+00 9.999990e-02 3.199942e+00
         vertex 2.604259e+00 8.309221e-01 3.196173e+00
         vertex 3.254450e+00 8.279688e-01 3.198426e+00
      endloop
   endfacet
   facet normal 3.110879e-03 -4.876017e-03 -9.999833e-01
      outer loop
         vertex 2.600926e+00 9.999990e-02 3.199942e+00
         vertex 3.254450e+00 8.279688e-01 3.198426e+00
         vertex 3.251131e+00 9.999990e-02 3.201965e+00
      endloop
   endfacet
   facet normal 3.440804e-03 -4.877516e-03 -9.999822e-01
      outer loop
         vertex 3.251131e+00 9.999990e-02 3.201965e+00
         vertex 3.254450e+00 8.279688e-01 3.198426e+00
         vertex 3.904641e+00 8.250155e-01 3.200677e+00
      endloop
   endfacet
   facet normal 3.111615e-03 -4.580798e-03 -9.999847e-01
      outer loop
         vertex 3.251131e+00 9.999990e-02 3.201965e+00
         vertex 3.904641e+00 8.250155e-01 3.200677e+00
         vertex 3.901337e+00 9.999990e-02 3.203988e+00
      endloop
   endfacet
   facet normal 3.441418e-03 -4.582296e-03 -9.999836e-01
      outer loop
         vertex 3.901337e+00 9.999990e-02 3.203988e+00
         vertex 3.904641e+00 8.250155e-01 3.200677e+00
         vertex 4.554832e+00 8.220623e-01 3.202928e+00
      endloop
   endfacet
   facet normal 3.113087e-03 -4.285147e-03 -9.999860e-01
      outer loop
         vertex 3.901337e+00 9.999990e-02 3.203988e+00
         vertex 4.554832e+00 8.220623e-01 3.202928e+00
         vertex 4.551542e+00 9.999990e-02 3.206012e+00
      endloop
   endfacet
   facet normal 3.442155e-03 -4.286642e-03 -9.999849e-01
      outer loop
         vertex 4.551542e+00 9.999990e-02 3.206012e+00
         vertex 4.554832e+00 8.220623e-01 3.202928e+00
         vertex 5.170907e+00 8.192637e-01 3.205061e+00
      endloop
   endfacet
   facet normal 3.114126e-03 -4.004177e-03 -9.999871e-01
      outer loop
         vertex 4.551542e+00 9.999990e-02 3.206012e+00
         vertex 5.170907e+00 8.192637e-01 3.205061e+00
         vertex 5.170907e+00 9.999990e-02 3.207941e+00
      endloop
   endfacet
   facet normal 3.440885e-03 -6.334206e-03 -9.999740e-01
      outer loop
         vertex 4.454067e-02 8.425488e-01 3.187297e+00
         vertex 4.457287e-02 1.603135e+00 3.182479e+00
         vertex 6.536863e-01 8.397820e-01 3.189410e+00
      endloop
   endfacet
   facet normal 3.787349e-03 -6.057751e-03 -9.999745e-01
      outer loop
         vertex 6.536863e-01 8.397820e-01 3.189410e+00
         vertex 4.457287e-02 1.603135e+00 3.182479e+00
         vertex 6.571571e-01 1.600354e+00 3.184816e+00
      endloop
   endfacet
   facet normal 3.441296e-03 -6.056179e-03 -9.999757e-01
      outer loop
         vertex 6.536863e-01 8.397820e-01 3.189410e+00
         vertex 6.571571e-01 1.600354e+00 3.184816e+00
         vertex 1.303877e+00 8.368287e-01 3.191666e+00
      endloop
   endfacet
   facet normal 3.788061e-03 -5.762467e-03 -9.999762e-01
      outer loop
         vertex 1.303877e+00 8.368287e-01 3.191666e+00
         vertex 6.571571e-01 1.600354e+00 3.184816e+00
         vertex 1.307347e+00 1.597402e+00 3.187296e+00
      endloop
   endfacet
   facet normal 3.440810e-03 -5.760890e-03 -9.999775e-01
      outer loop
         vertex 1.303877e+00 8.368287e-01 3.191666e+00
         vertex 1.307347e+00 1.597402e+00 3.187296e+00
         vertex 1.954068e+00 8.338754e-01 3.193920e+00
      endloop
   endfacet
   facet normal 3.787943e-03 -5.466865e-03 -9.999779e-01
      outer loop
         vertex 1.954068e+00 8.338754e-01 3.193920e+00
         vertex 1.307347e+00 1.597402e+00 3.187296e+00
         vertex 1.957537e+00 1.594450e+00 3.189775e+00
      endloop
   endfacet
   facet normal 3.440691e-03 -5.465288e-03 -9.999791e-01
      outer loop
         vertex 1.954068e+00 8.338754e-01 3.193920e+00
         vertex 1.957537e+00 1.594450e+00 3.189775e+00
         vertex 2.604259e+00 8.309221e-01 3.196173e+00
      endloop
   endfacet
   facet normal 3.788191e-03 -5.170951e-03 -9.999795e-01
      outer loop
         vertex 2.604259e+00 8.309221e-01 3.196173e+00
         vertex 1.957537e+00 1.594450e+00 3.189775e+00
         vertex 2.607728e+00 1.591497e+00 3.192253e+00
      endloop
   endfacet
   facet normal 3.440942e-03 -5.169374e-03 -9.999807e-01
      outer loop
         vertex 2.604259e+00 8.309221e-01 3.196173e+00
         vertex 2.607728e+00 1.591497e+00 3.192253e+00
         vertex 3.254450e+00 8.279688e-01 3.198426e+00
      endloop
   endfacet
   facet normal 3.788442e-03 -4.875037e-03 -9.999809e-01
      outer loop
         vertex 3.254450e+00 8.279688e-01 3.198426e+00
         vertex 2.607728e+00 1.591497e+00 3.192253e+00
         vertex 3.257917e+00 1.588545e+00 3.194731e+00
      endloop
   endfacet
   facet normal 3.440823e-03 -4.873459e-03 -9.999822e-01
      outer loop
         vertex 3.254450e+00 8.279688e-01 3.198426e+00
         vertex 3.257917e+00 1.588545e+00 3.194731e+00
         vertex 3.904641e+00 8.250155e-01 3.200677e+00
      endloop
   endfacet
   facet normal 3.788323e-03 -4.579120e-03 -9.999823e-01
      outer loop
         vertex 3.904641e+00 8.250155e-01 3.200677e+00
         vertex 3.257917e+00 1.588545e+00 3.194731e+00
         vertex 3.908108e+00 1.585593e+00 3.197208e+00
      endloop
   endfacet
   facet normal 3.441440e-03 -4.577545e-03 -9.999836e-01
      outer loop
         vertex 3.904641e+00 8.250155e-01 3.200677e+00
         vertex 3.908108e+00 1.585593e+00 3.197208e+00
         vertex 4.554832e+00 8.220623e-01 3.202928e+00
      endloop
   endfacet
   facet normal 3.788570e-03 -4.283519e-03 -9.999836e-01
      outer loop
         vertex 4.554832e+00 8.220623e-01 3.202928e+00
         vertex 3.908108e+00 1.585593e+00 3.197208e+00
         vertex 4.558298e+00 1.582641e+00 3.199684e+00
      endloop
   endfacet
   facet normal 3.442176e-03 -4.281946e-03 -9.999849e-01
      outer loop
         vertex 4.554832e+00 8.220623e-01 3.202928e+00
         vertex 4.558298e+00 1.582641e+00 3.199684e+00
         vertex 5.170907e+00 8.192637e-01 3.205061e+00
      endloop
   endfacet
   facet normal 3.788988e-03 -4.003629e-03 -9.999848e-01
      outer loop
         vertex 5.170907e+00 8.192637e-01 3.205061e+00
         vertex 4.558298e+00 1.582641e+00 3.199684e+00
         vertex 5.170907e+00 1.570841e+00 3.202052e+00
      endloop
   endfacet
   facet normal 4.134512e-03 -4.003035e-03 -9.999834e-01
      outer loop
         vertex 5.170907e+00 2.340455e+00 3.198971e+00
         vertex 5.170907e+00 1.570841e+00 3.202052e+00
         vertex 4.561763e+00 2.343220e+00 3.196442e+00
      endloop
   endfacet
   facet normal 3.783665e-03 -4.279735e-03 -9.999837e-01
      outer loop
         vertex 4.561763e+00 2.343220e+00 3.196442e+00
         vertex 5.170907e+00 1.570841e+00 3.202052e+00
         vertex 4.558298e+00 1.582641e+00 3.199684e+00
      endloop
   endfacet
   facet normal 4.134738e-03 -4.281329e-03 -9.999823e-01
      outer loop
         vertex 4.561763e+00 2.343220e+00 3.196442e+00
         vertex 4.558298e+00 1.582641e+00 3.199684e+00
         vertex 3.911574e+00 2.346171e+00 3.193740e+00
      endloop
   endfacet
   facet normal 3.787239e-03 -4.575667e-03 -9.999824e-01
      outer loop
         vertex 3.911574e+00 2.346171e+00 3.193740e+00
         vertex 4.558298e+00 1.582641e+00 3.199684e+00
         vertex 3.908108e+00 1.585593e+00 3.197208e+00
      endloop
   endfacet
   facet normal 4.134857e-03 -4.577245e-03 -9.999810e-01
      outer loop
         vertex 3.911574e+00 2.346171e+00 3.193740e+00
         vertex 3.908108e+00 1.585593e+00 3.197208e+00
         vertex 3.261385e+00 2.349122e+00 3.191038e+00
      endloop
   endfacet
   facet normal 3.786989e-03 -4.871896e-03 -9.999810e-01
      outer loop
         vertex 3.261385e+00 2.349122e+00 3.191038e+00
         vertex 3.908108e+00 1.585593e+00 3.197208e+00
         vertex 3.257917e+00 1.588545e+00 3.194731e+00
      endloop
   endfacet
   facet normal 4.134605e-03 -4.873474e-03 -9.999796e-01
      outer loop
         vertex 3.261385e+00 2.349122e+00 3.191038e+00
         vertex 3.257917e+00 1.588545e+00 3.194731e+00
         vertex 2.611196e+00 2.352073e+00 3.188336e+00
      endloop
   endfacet
   facet normal 3.787107e-03 -5.167810e-03 -9.999795e-01
      outer loop
         vertex 2.611196e+00 2.352073e+00 3.188336e+00
         vertex 3.257917e+00 1.588545e+00 3.194731e+00
         vertex 2.607728e+00 1.591497e+00 3.192253e+00
      endloop
   endfacet
   facet normal 4.134357e-03 -5.169386e-03 -9.999781e-01
      outer loop
         vertex 2.611196e+00 2.352073e+00 3.188336e+00
         vertex 2.607728e+00 1.591497e+00 3.192253e+00
         vertex 1.961006e+00 2.355024e+00 3.185632e+00
      endloop
   endfacet
   facet normal 3.786856e-03 -5.463725e-03 -9.999779e-01
      outer loop
         vertex 1.961006e+00 2.355024e+00 3.185632e+00
         vertex 2.607728e+00 1.591497e+00 3.192253e+00
         vertex 1.957537e+00 1.594450e+00 3.189775e+00
      endloop
   endfacet
   facet normal 4.133741e-03 -5.465300e-03 -9.999765e-01
      outer loop
         vertex 1.961006e+00 2.355024e+00 3.185632e+00
         vertex 1.957537e+00 1.594450e+00 3.189775e+00
         vertex 1.310817e+00 2.357975e+00 3.182928e+00
      endloop
   endfacet
   facet normal 3.786608e-03 -5.759325e-03 -9.999762e-01
      outer loop
         vertex 1.310817e+00 2.357975e+00 3.182928e+00
         vertex 1.957537e+00 1.594450e+00 3.189775e+00
         vertex 1.307347e+00 1.597402e+00 3.187296e+00
      endloop
   endfacet
   facet normal 4.133492e-03 -5.760900e-03 -9.999749e-01
      outer loop
         vertex 1.310817e+00 2.357975e+00 3.182928e+00
         vertex 1.307347e+00 1.597402e+00 3.187296e+00
         vertex 6.606279e-01 2.360926e+00 3.180224e+00
      endloop
   endfacet
   facet normal 3.786728e-03 -6.054612e-03 -9.999745e-01
      outer loop
         vertex 6.606279e-01 2.360926e+00 3.180224e+00
         vertex 1.307347e+00 1.597402e+00 3.187296e+00
         vertex 6.571571e-01 1.600354e+00 3.184816e+00
      endloop
   endfacet
   facet normal 4.132961e-03 -6.056183e-03 -9.999731e-01
      outer loop
         vertex 6.606279e-01 2.360926e+00 3.180224e+00
         vertex 6.571571e-01 1.600354e+00 3.184816e+00
         vertex 4.460508e-02 2.363722e+00 3.177661e+00
      endloop
   endfacet
   facet normal 3.786086e-03 -6.334524e-03 -9.999728e-01
      outer loop
         vertex 4.460508e-02 2.363722e+00 3.177661e+00
         vertex 6.571571e-01 1.600354e+00 3.184816e+00
         vertex 4.457287e-02 1.603135e+00 3.182479e+00
      endloop
   endfacet
   facet normal -3.443458e-03 4.002120e-03 9.999861e-01
      outer loop
         vertex 5.174423e+00 8.790708e-02 3.308000e+00
         vertex 5.173565e+00 8.192518e-01 3.305070e+00
         vertex 4.557973e+00 8.220479e-01 3.302939e+00
      endloop
   endfacet
   facet normal -3.108049e-03 4.283759e-03 9.999860e-01
      outer loop
         vertex 5.174423e+00 8.790708e-02 3.308000e+00
         vertex 4.557973e+00 8.220479e-01 3.302939e+00
         vertex 4.554634e+00 8.936810e-02 3.306068e+00
      endloop
   endfacet
   facet normal -3.442932e-03 4.285280e-03 9.999849e-01
      outer loop
         vertex 4.554634e+00 8.936810e-02 3.306068e+00
         vertex 4.557973e+00 8.220479e-01 3.302939e+00
         vertex 3.907330e+00 8.250031e-01 3.300686e+00
      endloop
   endfacet
   facet normal -3.108220e-03 4.579800e-03 9.999847e-01
      outer loop
         vertex 4.554634e+00 8.936810e-02 3.306068e+00
         vertex 3.907330e+00 8.250031e-01 3.300686e+00
         vertex 3.903984e+00 9.090185e-02 3.304038e+00
      endloop
   endfacet
   facet normal -3.442315e-03 4.581318e-03 9.999836e-01
      outer loop
         vertex 3.903984e+00 9.090185e-02 3.304038e+00
         vertex 3.907330e+00 8.250031e-01 3.300686e+00
         vertex 3.256687e+00 8.279586e-01 3.298433e+00
      endloop
   endfacet
   facet normal -3.107886e-03 4.875017e-03 9.999833e-01
      outer loop
         vertex 3.903984e+00 9.090185e-02 3.304038e+00
         vertex 3.256687e+00 8.279586e-01 3.298433e+00
         vertex 3.253334e+00 9.243560e-02 3.302009e+00
      endloop
   endfacet
   facet normal -3.442069e-03 4.876535e-03 9.999822e-01
      outer loop
         vertex 3.253334e+00 9.243560e-02 3.302009e+00
         vertex 3.256687e+00 8.279586e-01 3.298433e+00
         vertex 2.606045e+00 8.309140e-01 3.296179e+00
      endloop
   endfacet
   facet normal -3.107186e-03 5.170063e-03 9.999818e-01
      outer loop
         vertex 3.253334e+00 9.243560e-02 3.302009e+00
         vertex 2.606045e+00 8.309140e-01 3.296179e+00
         vertex 2.602684e+00 9.396958e-02 3.299979e+00
      endloop
   endfacet
   facet normal -3.441824e-03 5.171584e-03 9.999807e-01
      outer loop
         vertex 2.602684e+00 9.396958e-02 3.299979e+00
         vertex 2.606045e+00 8.309140e-01 3.296179e+00
         vertex 1.955402e+00 8.338692e-01 3.293924e+00
      endloop
   endfacet
   facet normal -3.106486e-03 5.464942e-03 9.999802e-01
      outer loop
         vertex 2.602684e+00 9.396958e-02 3.299979e+00
         vertex 1.955402e+00 8.338692e-01 3.293924e+00
         vertex 1.952034e+00 9.550333e-02 3.297949e+00
      endloop
   endfacet
   facet normal -3.442309e-03 5.466468e-03 9.999791e-01
      outer loop
         vertex 1.952034e+00 9.550333e-02 3.297949e+00
         vertex 1.955402e+00 8.338692e-01 3.293924e+00
         vertex 1.304759e+00 8.368247e-01 3.291669e+00
      endloop
   endfacet
   facet normal -3.105786e-03 5.760295e-03 9.999786e-01
      outer loop
         vertex 1.952034e+00 9.550333e-02 3.297949e+00
         vertex 1.304759e+00 8.368247e-01 3.291669e+00
         vertex 1.301384e+00 9.703708e-02 3.295920e+00
      endloop
   endfacet
   facet normal -3.442431e-03 5.761824e-03 9.999775e-01
      outer loop
         vertex 1.301384e+00 9.703708e-02 3.295920e+00
         vertex 1.304759e+00 8.368247e-01 3.291669e+00
         vertex 6.541166e-01 8.397799e-01 3.289412e+00
      endloop
   endfacet
   facet normal -3.104349e-03 6.056442e-03 9.999768e-01
      outer loop
         vertex 1.301384e+00 9.703708e-02 3.295920e+00
         vertex 6.541166e-01 8.397799e-01 3.289412e+00
         vertex 6.507342e-01 9.857082e-02 3.293890e+00
      endloop
   endfacet
   facet normal -3.442823e-03 6.057980e-03 9.999757e-01
      outer loop
         vertex 6.507342e-01 9.857082e-02 3.293890e+00
         vertex 6.541166e-01 8.397799e-01 3.289412e+00
         vertex 4.454067e-02 8.425488e-01 3.287296e+00
      endloop
   endfacet
   facet normal -3.103733e-03 6.334266e-03 9.999751e-01
      outer loop
         vertex 6.507342e-01 9.857082e-02 3.293890e+00
         vertex 4.454067e-02 8.425488e-01 3.287296e+00
         vertex 4.450923e-02 9.999990e-02 3.292000e+00
      endloop
   endfacet
   facet normal -4.466752e-03 6.334641e-03 9.999700e-01
      outer loop
         vertex 6.644197e-01 3.097533e+00 3.275781e+00
         vertex 4.463623e-02 3.099530e+00 3.273000e+00
         vertex 4.460508e-02 2.363722e+00 3.277661e+00
      endloop
   endfacet
   facet normal -4.132395e-03 6.052234e-03 9.999731e-01
      outer loop
         vertex 4.460508e-02 2.363722e+00 3.277661e+00
         vertex 6.610582e-01 2.360924e+00 3.280226e+00
         vertex 6.644197e-01 3.097533e+00 3.275781e+00
      endloop
   endfacet
   facet normal -4.131839e-03 6.052232e-03 9.999731e-01
      outer loop
         vertex 6.644197e-01 3.097533e+00 3.275781e+00
         vertex 6.610582e-01 2.360924e+00 3.280226e+00
         vertex 1.311699e+00 2.357971e+00 3.282932e+00
      endloop
   endfacet
   facet normal -4.468323e-03 5.757738e-03 9.999734e-01
      outer loop
         vertex 6.644197e-01 3.097533e+00 3.275781e+00
         vertex 1.311699e+00 2.357971e+00 3.282932e+00
         vertex 1.315064e+00 3.095437e+00 3.278701e+00
      endloop
   endfacet
   facet normal -4.132458e-03 5.756214e-03 9.999749e-01
      outer loop
         vertex 1.315064e+00 3.095437e+00 3.278701e+00
         vertex 1.311699e+00 2.357971e+00 3.282932e+00
         vertex 1.962340e+00 2.355018e+00 3.285638e+00
      endloop
   endfacet
   facet normal -4.468549e-03 5.462404e-03 9.999751e-01
      outer loop
         vertex 1.315064e+00 3.095437e+00 3.278701e+00
         vertex 1.962340e+00 2.355018e+00 3.285638e+00
         vertex 1.965708e+00 3.093340e+00 3.281620e+00
      endloop
   endfacet
   facet normal -4.133073e-03 5.460882e-03 9.999765e-01
      outer loop
         vertex 1.965708e+00 3.093340e+00 3.281620e+00
         vertex 1.962340e+00 2.355018e+00 3.285638e+00
         vertex 2.612981e+00 2.352065e+00 3.288343e+00
      endloop
   endfacet
   facet normal -4.469140e-03 5.167434e-03 9.999767e-01
      outer loop
         vertex 1.965708e+00 3.093340e+00 3.281620e+00
         vertex 2.612981e+00 2.352065e+00 3.288343e+00
         vertex 2.616352e+00 3.091244e+00 3.284538e+00
      endloop
   endfacet
   facet normal -4.133318e-03 5.165910e-03 9.999781e-01
      outer loop
         vertex 2.616352e+00 3.091244e+00 3.284538e+00
         vertex 2.612981e+00 2.352065e+00 3.288343e+00
         vertex 3.263622e+00 2.349112e+00 3.291048e+00
      endloop
   endfacet
   facet normal -4.470465e-03 4.871858e-03 9.999781e-01
      outer loop
         vertex 2.616352e+00 3.091244e+00 3.284538e+00
         vertex 3.263622e+00 2.349112e+00 3.291048e+00
         vertex 3.266996e+00 3.089147e+00 3.287457e+00
      endloop
   endfacet
   facet normal -4.133567e-03 4.870329e-03 9.999796e-01
      outer loop
         vertex 3.266996e+00 3.089147e+00 3.287457e+00
         vertex 3.263622e+00 2.349112e+00 3.291048e+00
         vertex 3.914263e+00 2.346159e+00 3.293752e+00
      endloop
   endfacet
   facet normal -4.471425e-03 4.575998e-03 9.999795e-01
      outer loop
         vertex 3.266996e+00 3.089147e+00 3.287457e+00
         vertex 3.914263e+00 2.346159e+00 3.293752e+00
         vertex 3.917640e+00 3.087051e+00 3.290376e+00
      endloop
   endfacet
   facet normal -4.133448e-03 4.574465e-03 9.999810e-01
      outer loop
         vertex 3.917640e+00 3.087051e+00 3.290376e+00
         vertex 3.914263e+00 2.346159e+00 3.293752e+00
         vertex 4.564904e+00 2.343206e+00 3.296455e+00
      endloop
   endfacet
   facet normal -4.473121e-03 4.278894e-03 9.999808e-01
      outer loop
         vertex 3.917640e+00 3.087051e+00 3.290376e+00
         vertex 4.564904e+00 2.343206e+00 3.296455e+00
         vertex 4.568284e+00 3.084955e+00 3.293296e+00
      endloop
   endfacet
   facet normal -4.133073e-03 4.277351e-03 9.999823e-01
      outer loop
         vertex 4.568284e+00 3.084955e+00 3.293296e+00
         vertex 4.564904e+00 2.343206e+00 3.296455e+00
         vertex 5.171779e+00 2.340451e+00 3.298975e+00
      endloop
   endfacet
   facet normal -4.474318e-03 4.000735e-03 9.999820e-01
      outer loop
         vertex 4.568284e+00 3.084955e+00 3.293296e+00
         vertex 5.171779e+00 2.340451e+00 3.298975e+00
         vertex 5.170907e+00 3.083013e+00 3.296000e+00
      endloop
   endfacet
   facet normal -3.786522e-03 6.333899e-03 9.999728e-01
      outer loop
         vertex 4.457287e-02 1.603135e+00 3.282479e+00
         vertex 4.454067e-02 8.425488e-01 3.287296e+00
         vertex 6.575874e-01 1.600352e+00 3.284818e+00
      endloop
   endfacet
   facet normal -3.442833e-03 6.055871e-03 9.999757e-01
      outer loop
         vertex 6.575874e-01 1.600352e+00 3.284818e+00
         vertex 4.454067e-02 8.425488e-01 3.287296e+00
         vertex 6.541166e-01 8.397799e-01 3.289412e+00
      endloop
   endfacet
   facet normal -3.786266e-03 6.057431e-03 9.999745e-01
      outer loop
         vertex 6.575874e-01 1.600352e+00 3.284818e+00
         vertex 6.541166e-01 8.397799e-01 3.289412e+00
         vertex 1.308229e+00 1.597398e+00 3.287299e+00
      endloop
   endfacet
   facet normal -3.442436e-03 5.760583e-03 9.999775e-01
      outer loop
         vertex 1.308229e+00 1.597398e+00 3.287299e+00
         vertex 6.541166e-01 8.397799e-01 3.289412e+00
         vertex 1.304759e+00 8.368247e-01 3.291669e+00
      endloop
   endfacet
   facet normal -3.786879e-03 5.762148e-03 9.999762e-01
      outer loop
         vertex 1.308229e+00 1.597398e+00 3.287299e+00
         vertex 1.304759e+00 8.368247e-01 3.291669e+00
         vertex 1.958871e+00 1.594443e+00 3.289780e+00
      endloop
   endfacet
   facet normal -3.442318e-03 5.464668e-03 9.999791e-01
      outer loop
         vertex 1.958871e+00 1.594443e+00 3.289780e+00
         vertex 1.304759e+00 8.368247e-01 3.291669e+00
         vertex 1.955402e+00 8.338692e-01 3.293924e+00
      endloop
   endfacet
   facet normal -3.786765e-03 5.466232e-03 9.999779e-01
      outer loop
         vertex 1.958871e+00 1.594443e+00 3.289780e+00
         vertex 1.955402e+00 8.338692e-01 3.293924e+00
         vertex 2.609513e+00 1.591489e+00 3.292260e+00
      endloop
   endfacet
   facet normal -3.441839e-03 5.168437e-03 9.999807e-01
      outer loop
         vertex 2.609513e+00 1.591489e+00 3.292260e+00
         vertex 1.955402e+00 8.338692e-01 3.293924e+00
         vertex 2.606045e+00 8.309140e-01 3.296179e+00
      endloop
   endfacet
   facet normal -3.787015e-03 5.170004e-03 9.999795e-01
      outer loop
         vertex 2.609513e+00 1.591489e+00 3.292260e+00
         vertex 2.606045e+00 8.309140e-01 3.296179e+00
         vertex 3.260155e+00 1.588535e+00 3.294739e+00
      endloop
   endfacet
   facet normal -3.442089e-03 4.872210e-03 9.999822e-01
      outer loop
         vertex 3.260155e+00 1.588535e+00 3.294739e+00
         vertex 2.606045e+00 8.309140e-01 3.296179e+00
         vertex 3.256687e+00 8.279586e-01 3.298433e+00
      endloop
   endfacet
   facet normal -3.786900e-03 4.873776e-03 9.999810e-01
      outer loop
         vertex 3.260155e+00 1.588535e+00 3.294739e+00
         vertex 3.256687e+00 8.279586e-01 3.298433e+00
         vertex 3.910797e+00 1.585581e+00 3.297218e+00
      endloop
   endfacet
   facet normal -3.442338e-03 4.576295e-03 9.999836e-01
      outer loop
         vertex 3.910797e+00 1.585581e+00 3.297218e+00
         vertex 3.256687e+00 8.279586e-01 3.298433e+00
         vertex 3.907330e+00 8.250031e-01 3.300686e+00
      endloop
   endfacet
   facet normal -3.787516e-03 4.577862e-03 9.999823e-01
      outer loop
         vertex 3.910797e+00 1.585581e+00 3.297218e+00
         vertex 3.907330e+00 8.250031e-01 3.300686e+00
         vertex 4.561439e+00 1.582627e+00 3.299696e+00
      endloop
   endfacet
   facet normal -3.442954e-03 4.280382e-03 9.999849e-01
      outer loop
         vertex 4.561439e+00 1.582627e+00 3.299696e+00
         vertex 3.907330e+00 8.250031e-01 3.300686e+00
         vertex 4.557973e+00 8.220479e-01 3.302939e+00
      endloop
   endfacet
   facet normal -3.787497e-03 4.281947e-03 9.999837e-01
      outer loop
         vertex 4.561439e+00 1.582627e+00 3.299696e+00
         vertex 4.557973e+00 8.220479e-01 3.302939e+00
         vertex 5.172672e+00 1.579852e+00 3.302023e+00
      endloop
   endfacet
   facet normal -3.443454e-03 4.002877e-03 9.999861e-01
      outer loop
         vertex 5.172672e+00 1.579852e+00 3.302023e+00
         vertex 4.557973e+00 8.220479e-01 3.302939e+00
         vertex 5.173565e+00 8.192518e-01 3.305070e+00
      endloop
   endfacet
   facet normal -3.788769e-03 4.002782e-03 9.999848e-01
      outer loop
         vertex 5.172672e+00 1.579852e+00 3.302023e+00
         vertex 5.171779e+00 2.340451e+00 3.298975e+00
         vertex 4.561439e+00 1.582627e+00 3.299696e+00
      endloop
   endfacet
   facet normal -4.133060e-03 4.280067e-03 9.999823e-01
      outer loop
         vertex 4.561439e+00 1.582627e+00 3.299696e+00
         vertex 5.171779e+00 2.340451e+00 3.298975e+00
         vertex 4.564904e+00 2.343206e+00 3.296455e+00
      endloop
   endfacet
   facet normal -3.788880e-03 4.278505e-03 9.999837e-01
      outer loop
         vertex 4.561439e+00 1.582627e+00 3.299696e+00
         vertex 4.564904e+00 2.343206e+00 3.296455e+00
         vertex 3.910797e+00 1.585581e+00 3.297218e+00
      endloop
   endfacet
   facet normal -4.133441e-03 4.575984e-03 9.999810e-01
      outer loop
         vertex 3.910797e+00 1.585581e+00 3.297218e+00
         vertex 4.564904e+00 2.343206e+00 3.296455e+00
         vertex 3.914263e+00 2.346159e+00 3.293752e+00
      endloop
   endfacet
   facet normal -3.788265e-03 4.574417e-03 9.999824e-01
      outer loop
         vertex 3.910797e+00 1.585581e+00 3.297218e+00
         vertex 3.914263e+00 2.346159e+00 3.293752e+00
         vertex 3.260155e+00 1.588535e+00 3.294739e+00
      endloop
   endfacet
   facet normal -4.133557e-03 4.872528e-03 9.999796e-01
      outer loop
         vertex 3.260155e+00 1.588535e+00 3.294739e+00
         vertex 3.914263e+00 2.346159e+00 3.293752e+00
         vertex 3.263622e+00 2.349112e+00 3.291048e+00
      endloop
   endfacet
   facet normal -3.788378e-03 4.870961e-03 9.999810e-01
      outer loop
         vertex 3.260155e+00 1.588535e+00 3.294739e+00
         vertex 3.263622e+00 2.349112e+00 3.291048e+00
         vertex 2.609513e+00 1.591489e+00 3.292260e+00
      endloop
   endfacet
   facet normal -4.133305e-03 5.168756e-03 9.999781e-01
      outer loop
         vertex 2.609513e+00 1.591489e+00 3.292260e+00
         vertex 3.263622e+00 2.349112e+00 3.291048e+00
         vertex 2.612981e+00 2.352065e+00 3.288343e+00
      endloop
   endfacet
   facet normal -3.788129e-03 5.167189e-03 9.999795e-01
      outer loop
         vertex 2.609513e+00 1.591489e+00 3.292260e+00
         vertex 2.612981e+00 2.352065e+00 3.288343e+00
         vertex 1.958871e+00 1.594443e+00 3.289780e+00
      endloop
   endfacet
   facet normal -4.133054e-03 5.464983e-03 9.999765e-01
      outer loop
         vertex 1.958871e+00 1.594443e+00 3.289780e+00
         vertex 2.612981e+00 2.352065e+00 3.288343e+00
         vertex 1.962340e+00 2.355018e+00 3.285638e+00
      endloop
   endfacet
   facet normal -3.788242e-03 5.463418e-03 9.999779e-01
      outer loop
         vertex 1.958871e+00 1.594443e+00 3.289780e+00
         vertex 1.962340e+00 2.355018e+00 3.285638e+00
         vertex 1.308229e+00 1.597398e+00 3.287299e+00
      endloop
   endfacet
   facet normal -4.132438e-03 5.760582e-03 9.999749e-01
      outer loop
         vertex 1.308229e+00 1.597398e+00 3.287299e+00
         vertex 1.962340e+00 2.355018e+00 3.285638e+00
         vertex 1.311699e+00 2.357971e+00 3.282932e+00
      endloop
   endfacet
   facet normal -3.787627e-03 5.759016e-03 9.999762e-01
      outer loop
         vertex 1.308229e+00 1.597398e+00 3.287299e+00
         vertex 1.311699e+00 2.357971e+00 3.282932e+00
         vertex 6.575874e-01 1.600352e+00 3.284818e+00
      endloop
   endfacet
   facet normal -4.131821e-03 6.056178e-03 9.999731e-01
      outer loop
         vertex 6.575874e-01 1.600352e+00 3.284818e+00
         vertex 1.311699e+00 2.357971e+00 3.282932e+00
         vertex 6.610582e-01 2.360924e+00 3.280226e+00
      endloop
   endfacet
   facet normal -3.787797e-03 6.054617e-03 9.999745e-01
      outer loop
         vertex 6.575874e-01 1.600352e+00 3.284818e+00
         vertex 6.610582e-01 2.360924e+00 3.280226e+00
         vertex 4.457287e-02 1.603135e+00 3.282479e+00
      endloop
   endfacet
   facet normal -4.131110e-03 6.333903e-03 9.999714e-01
      outer loop
         vertex 4.457287e-02 1.603135e+00 3.282479e+00
         vertex 6.610582e-01 2.360924e+00 3.280226e+00
         vertex 4.460508e-02 2.363722e+00 3.277661e+00
      endloop
   endfacet
   facet normal 9.999993e-01 1.174494e-03 -1.105347e-08
      outer loop
         vertex 5.170907e+00 3.083013e+00 3.296000e+00
         vertex 5.171779e+00 2.340451e+00 3.298975e+00
         vertex 5.170907e+00 3.083012e+00 3.220000e+00
      endloop
   endfacet
   facet normal 9.999993e-01 1.173563e-03 -8.764234e-06
      outer loop
         vertex 5.170907e+00 3.083012e+00 3.220000e+00
         vertex 5.171779e+00 2.340451e+00 3.298975e+00
         vertex 5.172672e+00 1.579852e+00 3.302023e+00
      endloop
   endfacet
   facet normal 9.999993e-01 1.173980e-03 -1.119719e-06
      outer loop
         vertex 5.170907e+00 3.083012e+00 3.220000e+00
         vertex 5.172672e+00 1.579852e+00 3.302023e+00
         vertex 5.174423e+00 8.790708e-02 3.220000e+00
      endloop
   endfacet
   facet normal 9.999993e-01 1.174204e-03 -5.194175e-06
      outer loop
         vertex 5.174423e+00 8.790708e-02 3.220000e+00
         vertex 5.172672e+00 1.579852e+00 3.302023e+00
         vertex 5.173565e+00 8.192518e-01 3.305070e+00
      endloop
   endfacet
   facet normal 9.999993e-01 1.173600e-03 -0.000000e+00
      outer loop
         vertex 5.174423e+00 8.790708e-02 3.220000e+00
         vertex 5.173565e+00 8.192518e-01 3.305070e+00
         vertex 5.174423e+00 8.790708e-02 3.308000e+00
      endloop
   endfacet
   facet normal 0.000000e+00 -1.000000e+00 0.000000e+00
      outer loop
         vertex 5.174409e+00 8.790708e-02 3.220000e+00
         vertex 5.174423e+00 8.790708e-02 3.220000e+00
         vertex 5.174409e+00 8.790708e-02 3.250000e+00
      endloop
   endfacet
   facet normal 0.000000e+00 -1.000000e+00 0.000000e+00
      outer loop
         vertex 5.174409e+00 8.790708e-02 3.250000e+00
         vertex 5.174423e+00 8.790708e-02 3.220000e+00
         vertex 5.174423e+00 8.790708e-02 3.308000e+00
      endloop
   endfacet
   facet normal -2.357338e-03 -9.999972e-01 0.000000e+00
      outer loop
         vertex 6.507342e-01 9.857082e-02 3.293890e+00
         vertex 4.450923e-02 9.999990e-02 3.292000e+00
         vertex 4.450923e-02 9.999990e-02 3.250000e+00
      endloop
   endfacet
   facet normal -2.357579e-03 -9.999972e-01 -1.107902e-05
      outer loop
         vertex 3.253334e+00 9.243560e-02 3.302009e+00
         vertex 2.602684e+00 9.396958e-02 3.299979e+00
         vertex 5.174409e+00 8.790708e-02 3.250000e+00
      endloop
   endfacet
   facet normal -2.357262e-03 -9.999972e-01 5.225693e-06
      outer loop
         vertex 5.174409e+00 8.790708e-02 3.250000e+00
         vertex 2.602684e+00 9.396958e-02 3.299979e+00
         vertex 1.952034e+00 9.550333e-02 3.297949e+00
      endloop
   endfacet
   facet normal -2.357316e-03 -9.999972e-01 1.610042e-06
      outer loop
         vertex 5.174409e+00 8.790708e-02 3.250000e+00
         vertex 1.952034e+00 9.550333e-02 3.297949e+00
         vertex 4.450923e-02 9.999990e-02 3.250000e+00
      endloop
   endfacet
   facet normal -2.357243e-03 -9.999972e-01 -1.306566e-06
      outer loop
         vertex 4.450923e-02 9.999990e-02 3.250000e+00
         vertex 1.952034e+00 9.550333e-02 3.297949e+00
         vertex 1.301384e+00 9.703708e-02 3.295920e+00
      endloop
   endfacet
   facet normal -2.357242e-03 -9.999972e-01 -1.319462e-06
      outer loop
         vertex 4.450923e-02 9.999990e-02 3.250000e+00
         vertex 1.301384e+00 9.703708e-02 3.295920e+00
         vertex 6.507342e-01 9.857082e-02 3.293890e+00
      endloop
   endfacet
   facet normal -2.357296e-03 -9.999972e-01 5.814023e-07
      outer loop
         vertex 5.174423e+00 8.790708e-02 3.308000e+00
         vertex 4.554634e+00 8.936810e-02 3.306068e+00
         vertex 5.174409e+00 8.790708e-02 3.250000e+00
      endloop
   endfacet
   facet normal -2.357250e-03 -9.999972e-01 1.086283e-06
      outer loop
         vertex 5.174409e+00 8.790708e-02 3.250000e+00
         vertex 4.554634e+00 8.936810e-02 3.306068e+00
         vertex 3.903984e+00 9.090185e-02 3.304038e+00
      endloop
   endfacet
   facet normal -2.357250e-03 -9.999972e-01 1.086274e-06
      outer loop
         vertex 5.174409e+00 8.790708e-02 3.250000e+00
         vertex 3.903984e+00 9.090185e-02 3.304038e+00
         vertex 3.253334e+00 9.243560e-02 3.302009e+00
      endloop
   endfacet
   facet normal -1.000000e+00 4.234084e-05 0.000000e+00
      outer loop
         vertex 4.450923e-02 9.999990e-02 3.250000e+00
         vertex 4.450923e-02 9.999990e-02 3.292000e+00
         vertex 4.454067e-02 8.425488e-01 3.287296e+00
      endloop
   endfacet
   facet normal -1.000000e+00 4.233883e-05 0.000000e+00
      outer loop
         vertex 4.450923e-02 9.999990e-02 3.192000e+00
         vertex 4.450923e-02 9.999990e-02 3.250000e+00
         vertex 4.454067e-02 8.425488e-01 3.187297e+00
      endloop
   endfacet
   facet normal -1.000000e+00 4.234009e-05 1.491576e-08
      outer loop
         vertex 4.454067e-02 8.425488e-01 3.187297e+00
         vertex 4.450923e-02 9.999990e-02 3.250000e+00
         vertex 4.454067e-02 8.425488e-01 3.287296e+00
      endloop
   endfacet
   facet normal -1.000000e+00 4.234006e-05 1.491576e-08
      outer loop
         vertex 4.454067e-02 8.425488e-01 3.187297e+00
         vertex 4.454067e-02 8.425488e-01 3.287296e+00
         vertex 4.457287e-02 1.603135e+00 3.182479e+00
      endloop
   endfacet
   facet normal -1.000000e+00 4.233796e-05 -3.637982e-10
      outer loop
         vertex 4.457287e-02 1.603135e+00 3.182479e+00
         vertex 4.454067e-02 8.425488e-01 3.287296e+00
         vertex 4.457287e-02 1.603135e+00 3.282479e+00
      endloop
   endfacet
   facet normal -1.000000e+00 4.233996e-05 -3.637982e-10
      outer loop
         vertex 4.457287e-02 1.603135e+00 3.182479e+00
         vertex 4.457287e-02 1.603135e+00 3.282479e+00
         vertex 4.460508e-02 2.363722e+00 3.177661e+00
      endloop
   endfacet
   facet normal -1.000000e+00 4.233790e-05 -1.535221e-08
      outer loop
         vertex 4.460508e-02 2.363722e+00 3.177661e+00
         vertex 4.457287e-02 1.603135e+00 3.282479e+00
         vertex 4.460508e-02 2.363722e+00 3.277661e+00
      endloop
   endfacet
   facet normal -1.000000e+00 4.233876e-05 -1.535221e-08
      outer loop
         vertex 4.460508e-02 2.363722e+00 3.177661e+00
         vertex 4.460508e-02 2.363722e+00 3.277661e+00
         vertex 4.463623e-02 3.099530e+00 3.173000e+00
      endloop
   endfacet
   facet normal -1.000000e+00 4.234094e-05 0.000000e+00
      outer loop
         vertex 4.463623e-02 3.099530e+00 3.173000e+00
         vertex 4.460508e-02 2.363722e+00 3.277661e+00
         vertex 4.463623e-02 3.099530e+00 3.273000e+00
      endloop
   endfacet
   facet normal 3.221881e-03 9.999948e-01 2.980196e-05
      outer loop
         vertex 5.170907e+00 3.083012e+00 3.220000e+00
         vertex 5.170907e+00 3.083013e+00 3.196000e+00
         vertex 4.565143e+00 3.084965e+00 3.193282e+00
      endloop
   endfacet
   facet normal 3.222015e-03 9.999948e-01 -0.000000e+00
      outer loop
         vertex 4.463623e-02 3.099530e+00 3.173000e+00
         vertex 4.463623e-02 3.099530e+00 3.273000e+00
         vertex 6.639894e-01 3.097534e+00 3.175779e+00
      endloop
   endfacet
   facet normal 3.222011e-03 9.999948e-01 -2.680509e-08
      outer loop
         vertex 6.639894e-01 3.097534e+00 3.175779e+00
         vertex 4.463623e-02 3.099530e+00 3.273000e+00
         vertex 6.644197e-01 3.097533e+00 3.275781e+00
      endloop
   endfacet
   facet normal 3.222014e-03 9.999948e-01 -2.682045e-08
      outer loop
         vertex 6.639894e-01 3.097534e+00 3.175779e+00
         vertex 6.644197e-01 3.097533e+00 3.275781e+00
         vertex 1.314182e+00 3.095439e+00 3.178696e+00
      endloop
   endfacet
   facet normal 3.222013e-03 9.999948e-01 -3.254426e-08
      outer loop
         vertex 1.314182e+00 3.095439e+00 3.178696e+00
         vertex 6.644197e-01 3.097533e+00 3.275781e+00
         vertex 1.315064e+00 3.095437e+00 3.278701e+00
      endloop
   endfacet
   facet normal 3.222013e-03 9.999948e-01 -3.253734e-08
      outer loop
         vertex 1.314182e+00 3.095439e+00 3.178696e+00
         vertex 1.315064e+00 3.095437e+00 3.278701e+00
         vertex 1.964374e+00 3.093345e+00 3.181613e+00
      endloop
   endfacet
   facet normal 3.222015e-03 9.999948e-01 -1.542175e-08
      outer loop
         vertex 1.964374e+00 3.093345e+00 3.181613e+00
         vertex 1.315064e+00 3.095437e+00 3.278701e+00
         vertex 1.965708e+00 3.093340e+00 3.281620e+00
      endloop
   endfacet
   facet normal 3.222015e-03 9.999948e-01 -1.541358e-08
      outer loop
         vertex 1.964374e+00 3.093345e+00 3.181613e+00
         vertex 1.965708e+00 3.093340e+00 3.281620e+00
         vertex 2.614566e+00 3.091250e+00 3.184531e+00
      endloop
   endfacet
   facet normal 3.222017e-03 9.999948e-01 -2.149299e-09
      outer loop
         vertex 2.614566e+00 3.091250e+00 3.184531e+00
         vertex 1.965708e+00 3.093340e+00 3.281620e+00
         vertex 2.616352e+00 3.091244e+00 3.284538e+00
      endloop
   endfacet
   facet normal 3.222014e-03 9.999948e-01 -2.100011e-09
      outer loop
         vertex 2.614566e+00 3.091250e+00 3.184531e+00
         vertex 2.616352e+00 3.091244e+00 3.284538e+00
         vertex 3.264759e+00 3.089155e+00 3.187448e+00
      endloop
   endfacet
   facet normal 3.222017e-03 9.999948e-01 1.579896e-08
      outer loop
         vertex 3.264759e+00 3.089155e+00 3.187448e+00
         vertex 2.616352e+00 3.091244e+00 3.284538e+00
         vertex 3.266996e+00 3.089147e+00 3.287457e+00
      endloop
   endfacet
   facet normal 3.222011e-03 9.999948e-01 1.591920e-08
      outer loop
         vertex 3.264759e+00 3.089155e+00 3.187448e+00
         vertex 3.266996e+00 3.089147e+00 3.287457e+00
         vertex 3.914951e+00 3.087060e+00 3.190365e+00
      endloop
   endfacet
   facet normal 3.222015e-03 9.999948e-01 4.146777e-08
      outer loop
         vertex 3.914951e+00 3.087060e+00 3.190365e+00
         vertex 3.266996e+00 3.089147e+00 3.287457e+00
         vertex 3.917640e+00 3.087051e+00 3.290376e+00
      endloop
   endfacet
   facet normal 3.222015e-03 9.999948e-01 4.147174e-08
      outer loop
         vertex 3.914951e+00 3.087060e+00 3.190365e+00
         vertex 3.917640e+00 3.087051e+00 3.290376e+00
         vertex 4.565143e+00 3.084965e+00 3.193282e+00
      endloop
   endfacet
   facet normal 3.222012e-03 9.999948e-01 2.389078e-08
      outer loop
         vertex 4.565143e+00 3.084965e+00 3.193282e+00
         vertex 3.917640e+00 3.087051e+00 3.290376e+00
         vertex 4.568284e+00 3.084955e+00 3.293296e+00
      endloop
   endfacet
   facet normal 3.223196e-03 9.999948e-01 -1.328957e-08
      outer loop
         vertex 4.565143e+00 3.084965e+00 3.193282e+00
         vertex 4.568284e+00 3.084955e+00 3.293296e+00
         vertex 5.170907e+00 3.083012e+00 3.220000e+00
      endloop
   endfacet
   facet normal 3.222053e-03 9.999948e-01 -9.411214e-06
      outer loop
         vertex 5.170907e+00 3.083012e+00 3.220000e+00
         vertex 4.568284e+00 3.084955e+00 3.293296e+00
         vertex 5.170907e+00 3.083013e+00 3.296000e+00
      endloop
   endfacet
   facet normal -1.000000e+00 -0.000000e+00 0.000000e+00
      outer loop
         vertex 5.170907e+00 3.083013e+00 3.196000e+00
         vertex 5.170907e+00 3.083013e+00 9.512124e-02
         vertex 5.170907e+00 2.340455e+00 3.198971e+00
      endloop
   endfacet
   facet normal -1.000000e+00 0.000000e+00 0.000000e+00
      outer loop
         vertex 5.170907e+00 2.340455e+00 3.198971e+00
         vertex 5.170907e+00 3.083013e+00 9.512124e-02
         vertex 5.170907e+00 2.340466e+00 8.971812e-02
      endloop
   endfacet
   facet normal -1.000000e+00 -0.000000e+00 -0.000000e+00
      outer loop
         vertex 5.170907e+00 2.340455e+00 3.198971e+00
         vertex 5.170907e+00 2.340466e+00 8.971812e-02
         vertex 5.170907e+00 1.570841e+00 3.202052e+00
      endloop
   endfacet
   facet normal -1.000000e+00 0.000000e+00 0.000000e+00
      outer loop
         vertex 5.170907e+00 1.570841e+00 3.202052e+00
         vertex 5.170907e+00 2.340466e+00 8.971812e-02
         vertex 5.170907e+00 1.570862e+00 8.411726e-02
      endloop
   endfacet
   facet normal -1.000000e+00 -0.000000e+00 -0.000000e+00
      outer loop
         vertex 5.170907e+00 1.570841e+00 3.202052e+00
         vertex 5.170907e+00 1.570862e+00 8.411726e-02
         vertex 5.170907e+00 8.192637e-01 3.205061e+00
      endloop
   endfacet
   facet normal -1.000000e+00 0.000000e+00 0.000000e+00
      outer loop
         vertex 5.170907e+00 8.192637e-01 3.205061e+00
         vertex 5.170907e+00 1.570862e+00 8.411726e-02
         vertex 5.170907e+00 8.192961e-01 7.864736e-02
      endloop
   endfacet
   facet normal -1.000000e+00 -0.000000e+00 -0.000000e+00
      outer loop
         vertex 5.170907e+00 8.192637e-01 3.205061e+00
         vertex 5.170907e+00 8.192961e-01 7.864736e-02
         vertex 5.170907e+00 9.999990e-02 3.207941e+00
      endloop
   endfacet
   facet normal -1.000000e+00 0.000000e+00 0.000000e+00
      outer loop
         vertex 5.170907e+00 9.999990e-02 3.207941e+00
         vertex 5.170907e+00 8.192961e-01 7.864736e-02
         vertex 5.170907e+00 9.999990e-02 7.341231e-02
      endloop
   endfacet
   facet normal 0.000000e+00 1.000000e+00 1.958180e-08
      outer loop
         vertex 5.270907e+00 3.083013e+00 2.235174e-08
         vertex 5.170907e+00 3.083013e+00 2.235174e-08
         vertex 5.170907e+00 3.083013e+00 9.512124e-02
      endloop
   endfacet
   facet normal -1.862638e-08 1.000000e+00 0.000000e+00
      outer loop
         vertex 5.270907e+00 3.083013e+00 2.235174e-08
         vertex 5.170907e+00 3.083013e+00 9.512124e-02
         vertex 5.270907e+00 3.083013e+00 3.220000e+00
      endloop
   endfacet
   facet normal 1.441644e-10 1.000000e+00 -6.006830e-10
      outer loop
         vertex 5.270907e+00 3.083013e+00 3.220000e+00
         vertex 5.170907e+00 3.083013e+00 9.512124e-02
         vertex 5.170907e+00 3.083013e+00 3.196000e+00
      endloop
   endfacet
   facet normal -7.152530e-06 1.000000e+00 2.980211e-05
      outer loop
         vertex 5.270907e+00 3.083013e+00 3.220000e+00
         vertex 5.170907e+00 3.083013e+00 3.196000e+00
         vertex 5.170907e+00 3.083012e+00 3.220000e+00
      endloop
   endfacet
   facet normal 1.000000e+00 -0.000000e+00 0.000000e+00
      outer loop
         vertex 5.270907e+00 0.000000e+00 3.220000e+00
         vertex 5.270907e+00 0.000000e+00 2.235174e-08
         vertex 5.270907e+00 3.083013e+00 3.220000e+00
      endloop
   endfacet
   facet normal 1.000000e+00 0.000000e+00 0.000000e+00
      outer loop
         vertex 5.270907e+00 3.083013e+00 3.220000e+00
         vertex 5.270907e+00 0.000000e+00 2.235174e-08
         vertex 5.270907e+00 3.083013e+00 2.235174e-08
      endloop
   endfacet
   facet normal -0.000000e+00 0.000000e+00 1.000000e+00
      outer loop
         vertex 5.174409e+00 8.790708e-02 3.220000e+00
         vertex 5.174409e+00 0.000000e+00 3.220000e+00
         vertex 5.174423e+00 8.790708e-02 3.220000e+00
      endloop
   endfacet
   facet normal 0.000000e+00 0.000000e+00 1.000000e+00
      outer loop
         vertex 5.174423e+00 8.790708e-02 3.220000e+00
         vertex 5.174409e+00 0.000000e+00 3.220000e+00
         vertex 5.270907e+00 0.000000e+00 3.220000e+00
      endloop
   endfacet
   facet normal -0.000000e+00 -0.000000e+00 1.000000e+00
      outer loop
         vertex 5.174423e+00 8.790708e-02 3.220000e+00
         vertex 5.270907e+00 0.000000e+00 3.220000e+00
         vertex 5.170907e+00 3.083012e+00 3.220000e+00
      endloop
   endfacet
   facet normal -0.000000e+00 0.000000e+00 1.000000e+00
      outer loop
         vertex 5.170907e+00 3.083012e+00 3.220000e+00
         vertex 5.270907e+00 0.000000e+00 3.220000e+00
         vertex 5.270907e+00 3.083013e+00 3.220000e+00
      endloop
   endfacet
endsolid